<?xml version="1.0" standalone="no"?>
<!DOCTYPE svg PUBLIC "-//W3C//DTD SVG 20010904//EN"
 "http://www.w3.org/TR/2001/REC-SVG-20010904/DTD/svg10.dtd">
<svg version="1.0" xmlns="http://www.w3.org/2000/svg"
 width="512.000000pt" height="512.000000pt" viewBox="0 0 512.000000 512.000000"
 preserveAspectRatio="xMidYMid meet">

<g transform="translate(0.000000,512.000000) scale(0.100000,-0.100000)"
fill="#ffffff" stroke="none">
<path d="M2463 4995 c-29 -8 -72 -24 -95 -36 -52 -25 -784 -751 -828 -819 -70
-111 -79 -271 -22 -391 28 -57 75 -108 419 -451 418 -416 430 -426 557 -449
52 -10 80 -10 132 0 129 23 147 38 560 448 347 345 384 384 415 448 32 66 34
75 34 180 0 179 13 161 -442 617 -410 411 -437 433 -551 457 -68 14 -114 13
-179 -4z m225 -115 c65 -29 781 -740 819 -815 35 -67 42 -171 18 -246 -16 -50
-44 -81 -403 -441 -434 -436 -430 -432 -562 -432 -130 0 -134 3 -495 364
l-320 320 223 0 c240 0 273 -6 285 -52 12 -43 -47 -92 -68 -58 -3 6 -20 10
-36 10 -22 0 -32 -7 -41 -25 -23 -52 55 -106 134 -91 71 13 124 105 107 185
-10 48 -39 83 -89 109 -43 21 -53 22 -330 22 l-286 0 -22 39 c-12 21 -22 41
-22 45 0 3 275 6 610 6 659 0 647 1 684 -52 9 -12 16 -38 16 -58 0 -73 -55
-107 -116 -70 -40 25 -70 19 -87 -17 -10 -23 -8 -28 25 -58 61 -56 157 -55
221 3 53 47 73 154 43 225 -17 43 -85 101 -135 115 -27 9 -217 12 -660 12
l-621 0 0 34 c0 71 -36 66 464 66 l452 0 53 26 c98 49 137 154 91 248 -29 62
-70 89 -139 94 -46 3 -62 0 -91 -20 -47 -32 -54 -82 -15 -100 21 -10 31 -9 55
5 40 24 65 21 89 -9 24 -30 26 -52 10 -88 -25 -54 -41 -56 -490 -56 l-414 0
365 366 c201 201 379 373 395 381 88 47 194 52 283 13z"/>
<path d="M1128 3599 c-127 -18 -140 -28 -560 -448 -353 -352 -390 -392 -418
-453 -54 -115 -52 -245 6 -363 37 -74 785 -821 856 -853 136 -62 290 -52 408
27 25 17 212 198 416 403 313 314 375 382 398 430 51 111 51 245 0 358 -21 46
-86 116 -411 442 -249 249 -403 395 -432 411 -79 43 -172 59 -263 46z m177
-116 c46 -14 82 -47 441 -407 365 -364 393 -395 409 -444 26 -80 22 -170 -10
-239 -21 -47 -64 -96 -228 -260 -111 -112 -204 -203 -208 -203 -4 0 -40 20
-80 45 -284 175 -579 178 -862 7 l-90 -54 -204 203 c-231 231 -254 263 -261
374 -3 56 1 82 18 130 21 56 46 83 392 431 254 255 386 380 420 399 81 44 159
50 263 18z m65 -1498 c62 -19 202 -86 240 -115 19 -14 22 -22 13 -30 -8 -9
-28 -2 -80 28 -227 135 -480 133 -713 -4 -40 -24 -58 -29 -68 -22 -10 8 -4 16
23 35 60 41 184 95 259 115 86 22 242 18 326 -7z m-55 -130 c33 -8 98 -34 143
-56 l84 -41 -22 -23 -23 -24 -56 28 c-87 44 -156 61 -250 61 -98 0 -139 -9
-234 -52 -65 -30 -68 -30 -87 -13 -14 13 -17 22 -10 30 15 18 148 77 205 91
70 17 180 17 250 -1z m7 -174 c31 -11 66 -25 79 -31 l23 -13 -35 -28 c-104
-87 -282 -91 -381 -9 -21 17 -38 35 -38 40 0 6 62 34 120 53 40 14 180 6 232
-12z"/>
<path d="M1139 3228 c-58 -45 -123 -143 -150 -228 -13 -38 -26 -70 -29 -70 -4
0 -15 9 -25 20 -29 32 -59 25 -100 -22 -157 -180 -141 -464 34 -631 186 -178
463 -176 655 3 174 163 178 384 11 609 -55 75 -324 351 -342 351 -6 0 -31 -15
-54 -32z m177 -228 c188 -195 238 -282 238 -410 1 -62 -4 -84 -26 -125 -14
-27 -40 -63 -57 -79 l-31 -30 0 60 c0 84 -30 138 -142 258 -77 81 -97 98 -114
92 -27 -8 -190 -189 -217 -241 -14 -27 -21 -60 -21 -102 l-1 -62 -26 25 c-15
14 -39 51 -54 82 -51 103 -44 274 14 351 l19 25 47 -42 c26 -23 54 -42 61 -42
29 0 54 39 54 83 0 52 20 129 48 183 24 47 71 106 81 102 4 -2 61 -59 127
-128z m-6 -494 c62 -81 30 -195 -64 -231 -62 -24 -110 -14 -157 34 -75 74 -64
149 37 260 l68 73 43 -48 c24 -27 57 -67 73 -88z"/>
<path d="M3860 3598 c-123 -20 -135 -29 -553 -446 -330 -329 -392 -396 -417
-447 -56 -113 -57 -248 -4 -363 23 -48 85 -116 398 -430 204 -205 391 -386
416 -403 57 -38 158 -69 224 -69 66 0 156 23 209 55 23 13 216 199 428 412
400 402 414 419 439 525 21 93 6 196 -42 293 -25 49 -743 773 -808 815 -82 52
-191 74 -290 58z m205 -128 c52 -25 111 -81 431 -402 419 -421 409 -408 409
-553 -1 -120 -16 -143 -268 -394 l-215 -214 -77 6 c-114 10 -258 42 -433 96
-288 90 -405 114 -609 127 l-112 7 -95 97 c-115 117 -147 176 -148 274 0 35 8
88 17 118 16 49 45 81 394 431 393 396 424 421 520 436 68 11 119 3 186 -29z
m-495 -1470 c52 -11 183 -47 290 -80 171 -53 290 -82 435 -105 l40 -7 -112
-108 c-130 -125 -176 -151 -277 -158 -57 -3 -83 1 -131 18 -55 21 -79 42 -285
247 l-225 225 85 -6 c47 -4 128 -16 180 -26z"/>
<path d="M3898 3338 c-23 -19 -328 -571 -345 -625 -23 -77 -14 -195 23 -273
75 -159 247 -251 411 -221 244 45 388 282 310 510 -15 43 -310 575 -335 604
-18 20 -42 22 -64 5z m170 -388 c149 -267 164 -310 143 -403 -51 -228 -320
-311 -486 -150 -75 73 -106 198 -73 294 13 40 269 499 277 499 3 -1 66 -108
139 -240z"/>
<path d="M4071 2713 c-5 -11 -7 -46 -4 -79 4 -48 1 -70 -17 -111 -28 -65 -17
-96 33 -91 28 3 36 11 60 57 21 43 27 68 27 120 0 84 -15 115 -57 119 -23 2
-34 -2 -42 -15z"/>
<path d="M3644 1896 c-40 -40 -46 -92 -14 -143 40 -66 150 -66 191 1 31 50 25
102 -15 142 -29 29 -41 34 -81 34 -40 0 -52 -5 -81 -34z m96 -81 c0 -8 -7 -15
-15 -15 -8 0 -15 7 -15 15 0 8 7 15 15 15 8 0 15 -7 15 -15z"/>
<path d="M3952 1803 c-22 -9 -44 -63 -37 -94 20 -89 165 -71 165 21 0 58 -68
97 -128 73z"/>
<path d="M2493 1698 c-109 -113 -186 -261 -225 -429 l-22 -97 -55 38 c-156
105 -352 167 -506 158 -55 -3 -60 -5 -69 -31 -15 -41 9 -203 45 -311 32 -97
83 -198 130 -257 l29 -36 -63 -12 c-175 -33 -340 -114 -467 -228 -62 -56 -63
-76 -7 -129 226 -215 565 -302 872 -225 92 24 257 103 329 158 27 21 54 42 61
47 7 6 34 -8 75 -38 239 -176 516 -233 801 -165 88 21 239 87 311 137 78 54
148 123 148 146 0 24 -46 72 -130 134 -84 62 -232 129 -341 153 l-96 22 53 79
c89 134 144 295 159 469 10 106 1 114 -120 106 -161 -10 -321 -66 -466 -163
-39 -25 -71 -45 -73 -43 -1 2 -8 33 -15 68 -19 99 -67 221 -121 309 -54 87
-147 192 -171 192 -8 0 -38 -24 -66 -52z m111 -131 c62 -84 125 -226 148 -335
50 -242 -17 -525 -167 -699 l-30 -35 -36 49 c-193 255 -228 607 -87 888 33 65
115 185 126 185 4 0 25 -24 46 -53z m814 -344 c-20 -147 -88 -302 -188 -428
-119 -150 -335 -278 -508 -302 l-45 -6 32 46 c82 120 145 297 158 445 l6 72
71 54 c39 29 91 65 116 79 89 51 257 104 336 106 l31 1 -9 -67z m-1558 27
c106 -26 246 -93 325 -157 50 -41 60 -54 62 -83 13 -174 78 -368 160 -478 14
-18 22 -36 19 -39 -9 -9 -113 16 -181 43 -285 115 -493 387 -528 692 -5 42 -5
42 26 42 18 0 70 -9 117 -20z m1550 -641 c41 -11 111 -37 155 -58 84 -40 185
-109 185 -126 -1 -16 -99 -83 -185 -126 -126 -62 -217 -82 -370 -82 -178 0
-301 34 -452 126 -58 34 -66 47 -29 47 46 0 201 52 285 95 47 25 117 70 156
100 l70 56 55 -7 c30 -4 89 -15 130 -25z m-1445 -23 c110 -90 263 -164 388
-188 37 -7 66 -17 64 -23 -2 -5 -37 -29 -77 -52 -280 -160 -615 -148 -887 33
-46 31 -83 59 -83 64 0 23 140 114 230 150 87 35 190 59 253 59 53 1 61 -2
112 -43z"/>
</g>
</svg>
